# xmcd CD database file
#
# Track frame offsets:
#	150
#	22625
#	37477
#	59495
#	72857
#	94342
#	110295
#	126145
#	145437
#	159752
#	175497
#	192280
#	208930
#	226072
#
# Disc length: 3252 seconds
#
# Revision: 0
# Processed by: cddbd v1.5.1PL0 Copyright (c) Steve Scherf et al.
# Submitted via: CDex 1.51
#
DISCID=c60cb20e
DTITLE=Motoharu Sano - Instrumental COLLECTION
DYEAR=1991
DGENRE=Instrumental
TTITLE0=SOMEDAY
TTITLE1=グッバイからはじめよう
TTITLE2=COMPLICATION SHAKEDOWN
TTITLE3=スターダスト・キッズ
TTITLE4=TONIGHT
TTITLE5=ガラスのジェネレーション
TTITLE6=警告どおり計画どおり
TTITLE7=約束の橋
TTITLE8=ナポレオンフィッシュと泳ぐ日
TTITLE9=シティーチャイルド
TTITLE10=SEASON IN THE SUN
TTITLE11=WILD HERTS
TTITLE12=ジャスミンガール
TTITLE13=アンジェリーナ
EXTD=YEAR: 1991
EXTT0=
EXTT1=
EXTT2=
EXTT3=
EXTT4=
EXTT5=
EXTT6=
EXTT7=
EXTT8=
EXTT9=
EXTT10=
EXTT11=
EXTT12=
EXTT13=
PLAYORDER=
